<?xml version="1.0" standalone="no"?><!DOCTYPE svg PUBLIC "-//W3C//DTD SVG 1.1//EN" "http://www.w3.org/Graphics/SVG/1.1/DTD/svg11.dtd"><svg t="1535612220486" class="icon" style="" viewBox="0 0 1024 1024" version="1.1" xmlns="http://www.w3.org/2000/svg" p-id="2045" xmlns:xlink="http://www.w3.org/1999/xlink" width="200" height="200"><defs><style type="text/css"></style></defs><path d="M430.738516 907.615454h-207.008087A210.228212 210.228212 0 0 1 13.962235 697.84726V35.421384A35.421384 35.421384 0 0 1 49.383619 0h630.684636A210.228212 210.228212 0 0 1 887.996377 209.768194V455.41779a35.421384 35.421384 0 0 1-10.580413 25.300988l-422.296496 416.77628a35.421384 35.421384 0 0 1-24.380952 10.120396zM84.344985 70.382749v627.464511a138.005391 138.005391 0 0 0 138.005391 138.00539h193.667565l403.435759-396.535489v-230.008985a138.005391 138.005391 0 0 0-138.005391-138.005391z" fill="" p-id="2046"></path><path d="M732.510304 281.530997H171.748399a27.601078 27.601078 0 0 1 0-55.202156h560.761905a27.601078 27.601078 0 0 1 0 55.202156zM732.510304 435.637017H171.748399a27.601078 27.601078 0 0 1 0-55.202156h560.761905a27.601078 27.601078 0 0 1 0 55.202156zM551.723242 1024a25.761006 25.761006 0 0 1-25.300989-30.361186l19.320755-113.16442a25.761006 25.761006 0 0 1 7.360288-13.80054l309.132075-309.132075a72.682839 72.682839 0 0 1 100.743935 0l26.221025 26.221024a71.302785 71.302785 0 0 1 0 100.743936l-309.592094 309.132075a25.761006 25.761006 0 0 1-12.880503 6.90027l-109.944295 23.000898z m109.944294-48.761905z m-66.242587-77.743037L583.464482 966.037736l65.322551-13.800539 303.61186-303.61186a19.780773 19.780773 0 0 0 0-27.601078l-26.221024-26.221024a20.240791 20.240791 0 0 0-27.601078 0z" fill="" p-id="2047"></path><path d="M929.858013 732.348607a25.761006 25.761006 0 0 1-17.480683-6.900269l-92.003594-87.403414a25.761006 25.761006 0 1 1 35.421383-37.261456l92.003594 87.403414a25.761006 25.761006 0 0 1-17.480682 46.001797z" fill="" p-id="2048"></path></svg>