<?xml version="1.0" standalone="no"?><!DOCTYPE svg PUBLIC "-//W3C//DTD SVG 1.1//EN" "http://www.w3.org/Graphics/SVG/1.1/DTD/svg11.dtd"><svg t="1535612216910" class="icon" style="" viewBox="0 0 1024 1024" version="1.1" xmlns="http://www.w3.org/2000/svg" p-id="1918" xmlns:xlink="http://www.w3.org/1999/xlink" width="200" height="200"><defs><style type="text/css"></style></defs><path d="M513.152 966.528h-2.304a31.872 31.872 0 0 1-17.536-5.248c-270.976-102.4-360.128-291.072-363.84-299.2-35.2-133.248-38.912-467.008-39.104-481.216l-0.256-19.52 17.344-9.088c401.024-210.304 792.576-8.64 809.088 0l17.28 9.152-0.192 19.52c-0.128 14.144-3.968 347.968-37.12 475.968-5.632 13.312-94.848 202.048-365.824 304.448a33.088 33.088 0 0 1-17.536 5.184zM189.44 640.64c0.576 0 82.88 167.232 322.496 259.264 242.112-92.992 323.648-262.784 324.48-264.576 25.152-98.56 31.552-359.616 32.896-434.688-76.736-34.496-395.2-157.696-714.688-0.64 1.344 74.368 7.872 337.216 34.816 440.64z" fill="" p-id="1919"></path><path d="M512 607.232a48 48 0 0 1-48-48V248.64a48 48 0 0 1 96 0v310.592a48 48 0 0 1-48 48zM513.216 774.72a48 48 0 0 1-48-48v-28.032a48 48 0 0 1 96 0v28.032a48 48 0 0 1-48 48z" fill="" p-id="1920"></path></svg>