<?xml version="1.0" standalone="no"?><!DOCTYPE svg PUBLIC "-//W3C//DTD SVG 1.1//EN" "http://www.w3.org/Graphics/SVG/1.1/DTD/svg11.dtd"><svg t="1535612200318" class="icon" style="" viewBox="0 0 1024 1024" version="1.1" xmlns="http://www.w3.org/2000/svg" p-id="1533" xmlns:xlink="http://www.w3.org/1999/xlink" width="200" height="200"><defs><style type="text/css"></style></defs><path d="M510.9 428.1c-82.3 0-149.2-67-149.2-149.3s66.9-149.3 149.2-149.3 149.2 67 149.2 149.3-66.9 149.3-149.2 149.3z m0-248.6c-54.7 0-99.2 44.5-99.2 99.3s44.5 99.3 99.2 99.3 99.2-44.5 99.2-99.3-44.5-99.3-99.2-99.3z" fill="" p-id="1534"></path><path d="M832.9 700.6h-50c0-48.9-29.3-104.6-78.4-149.2-25.4-23.1-55.4-42.1-86.7-55.1-34.2-14.2-69.6-21.4-105.4-21.4-35.8 0-71.3 7.2-105.4 21.4-31.3 13-61.3 32.1-86.7 55.1-49 44.6-78.3 100.3-78.3 149.2h-50c0-62.7 35.4-132.3 94.7-186.2 30-27.3 64-48.9 101.1-64.3 40.3-16.7 82.2-25.2 124.6-25.2s84.3 8.5 124.6 25.2c37.1 15.4 71.1 37.1 101.1 64.3 59.4 53.9 94.8 123.5 94.8 186.2z" fill="" p-id="1535"></path><path d="M485 434.9h56.9v170.6H485zM347.9 895.6h-220v-220h220v220z m-170-50h120v-120h-120v120z" fill="" p-id="1536"></path><path d="M613.4 770.5h-200v-200h200v200z m-150-50h100v-100h-100v100zM896.5 896.4h-220v-220h220v220z m-170-50h120v-120h-120v120z" fill="" p-id="1537"></path></svg>